<svg xmlns="http://www.w3.org/2000/svg" version="1.1" xmlns:xlink="http://www.w3.org/1999/xlink" width="512" height="512">
  <style>
    #light-icon {
      display: inline;
    }
    #dark-icon {
      display: none;
    }

    @media (prefers-color-scheme: dark) {
      #light-icon {
        display: none;
      }
      #dark-icon {
        display: inline;
      }
    }
  </style>
  <g id="light-icon">
    <path d="M0 0 C0.6886783 -0.00265183 1.37735659 -0.00530365 2.08690393 -0.00803584 C4.4056911 -0.01572462 6.72442527 -0.01628785 9.04322433 -0.01688576 C10.71819306 -0.02090069 12.39316081 -0.02533897 14.06812739 -0.03016531 C18.68004159 -0.04213382 23.29194533 -0.04777994 27.90387201 -0.05234647 C32.87484963 -0.05830174 37.84581473 -0.069912 42.81678391 -0.08063698 C54.82864462 -0.10516619 66.84050949 -0.11979069 78.85238755 -0.13269705 C82.24599905 -0.13640917 85.63961015 -0.14038241 89.03322124 -0.14444971 C110.11211934 -0.16969093 131.1910181 -0.19174173 152.26992798 -0.20417786 C157.15324277 -0.20710752 162.03655754 -0.21006918 166.91987228 -0.21308327 C168.13358414 -0.21382932 169.34729599 -0.21457537 170.59778699 -0.21534403 C190.24500842 -0.22798885 209.89213917 -0.26119948 229.53931823 -0.3028851 C249.71702415 -0.34534473 269.89468372 -0.36887772 290.07243419 -0.37409842 C301.39877069 -0.3775084 312.72496561 -0.38921462 324.05125809 -0.42220116 C333.7008564 -0.45025844 343.35028411 -0.46117618 352.99992004 -0.4500057 C357.91941371 -0.44483321 362.83855041 -0.44761374 367.75799179 -0.47247124 C372.2714339 -0.49508572 376.78426516 -0.49413001 381.29771885 -0.47526737 C382.92103108 -0.47248431 384.54438582 -0.47797039 386.16763011 -0.4930803 C405.80819551 -0.66456235 421.3792 5.14177897 435.89936447 18.76592064 C449.61956272 33.02646916 453.48824249 49.40918497 453.44804001 68.5008297 C453.45177882 70.18138976 453.45638126 71.86194808 453.46177065 73.54250365 C453.4739876 78.15119301 453.47374172 82.75980971 453.4713819 87.36851156 C453.4709734 92.34277421 453.48201607 97.31701367 453.49149704 102.29126549 C453.50810108 112.03355533 453.51360633 121.77582096 453.5147218 131.51812377 C453.51567259 139.43878279 453.51978448 147.35943383 453.52612305 155.28009033 C453.54373418 177.74468716 453.55296217 200.20926489 453.5514621 222.67386868 C453.55134223 224.49000203 453.55134223 224.49000203 453.55121994 226.34282494 C453.55113818 227.55506172 453.55105642 228.76729849 453.55097218 230.01626972 C453.55015941 249.65878564 453.56929502 269.30122484 453.59749667 288.94371857 C453.62623631 309.1204115 453.64003636 329.29706702 453.63830912 349.47378093 C453.63764557 360.79825665 453.64312246 372.12265196 453.66466522 383.44710922 C453.68289124 393.08973413 453.68721267 402.73224219 453.67364638 412.37487688 C453.66712382 417.2919468 453.66697381 422.20879264 453.68435287 427.12584114 C453.70012017 431.6333525 453.69718273 436.14046278 453.67978461 440.64796457 C453.67672275 442.27244309 453.68031622 443.89695182 453.69150476 445.52139469 C453.81853214 465.28433045 447.70713147 480.81790782 434.19233322 495.26201439 C429.85006038 499.448914 425.12267488 502.55372126 419.86811447 505.44951439 C419.28860031 505.7751638 418.70908615 506.10081322 418.11201096 506.4363308 C407.10458881 512.19534938 395.52868867 512.57284462 383.40497971 512.51796532 C381.72850332 512.52142749 380.05202921 512.5261958 378.37555981 512.53214705 C373.79673766 512.54460978 369.21810436 512.5385083 364.63928175 512.52918839 C359.69032896 512.52237879 354.74140782 512.53288859 349.7924614 512.54112816 C340.10852172 512.55444732 330.42465192 512.55159585 320.74070954 512.54289024 C312.86828556 512.53610695 304.99588112 512.53519976 297.12345505 512.53846169 C295.44089588 512.53915123 295.44089588 512.53915123 293.72434562 512.53985471 C291.4454108 512.54081392 289.16647599 512.54178656 286.88754117 512.54277249 C265.53279461 512.55132106 244.17808672 512.5415006 222.8233465 512.52537139 C204.5117524 512.5119687 186.20021535 512.51429694 167.88862228 512.52812767 C146.6087427 512.54419288 125.32889699 512.55049713 104.04901218 512.54129088 C101.77859943 512.54033526 99.50818666 512.53939215 97.2377739 512.53846169 C96.12077352 512.53799886 95.00377315 512.53753603 93.85292429 512.53705918 C85.99265346 512.53447212 78.13240418 512.53883417 70.27213669 512.54590034 C60.68924289 512.55432599 51.10642279 512.55201279 41.5235374 512.53605811 C36.63698316 512.52818977 31.75055166 512.5250593 26.86399841 512.53500557 C22.38574014 512.54398273 17.90771773 512.53897007 13.42948067 512.52307291 C11.81456487 512.51973787 10.19962891 512.52139024 8.58472621 512.52870028 C-10.56114267 512.60867871 -26.7115085 507.75205822 -40.80791092 494.41631126 C-53.36851101 481.83629757 -59.0582388 465.9205484 -59.09619653 448.48634034 C-59.09325472 446.9152929 -59.09011932 445.3442458 -59.08681107 443.77319908 C-59.09054988 442.09263902 -59.09515232 440.4120807 -59.10054171 438.73152512 C-59.11275866 434.12283577 -59.11251278 429.51421907 -59.11015296 424.90551722 C-59.10974446 419.93125457 -59.12078713 414.95701511 -59.1302681 409.98276329 C-59.14687214 400.24047345 -59.15237738 390.49820782 -59.15349285 380.75590501 C-59.15444365 372.83524599 -59.15855554 364.91459494 -59.1648941 356.99393845 C-59.18250523 334.52934161 -59.19173323 312.06476388 -59.19023316 289.6001601 C-59.19015324 288.38940453 -59.19007333 287.17864897 -59.189991 285.93120384 C-59.18990924 284.71896706 -59.18982747 283.50673028 -59.18974324 282.25775906 C-59.18893047 262.61524314 -59.20806608 242.97280393 -59.23626773 223.3303102 C-59.26500737 203.15361728 -59.27880741 182.97696176 -59.27708018 162.80024785 C-59.27641663 151.47577213 -59.28189351 140.15137682 -59.30343628 128.82691956 C-59.3216623 119.18429465 -59.32598373 109.54178659 -59.31241743 99.8991519 C-59.30589488 94.98208197 -59.30574487 90.06523614 -59.32312393 85.14818764 C-59.33889122 80.64067628 -59.33595379 76.133566 -59.31855567 71.6260642 C-59.3154938 70.00158569 -59.31908728 68.37707696 -59.33027582 66.75263409 C-59.45659936 47.09920152 -53.45019515 31.13061991 -39.69047928 16.94170189 C-29.12570493 7.00060832 -14.6178972 0.02771614 0 0 Z " fill="#1A1A1A" transform="translate(58.81938552856445,-0.13701438903808594)"/>
    <path d="M0 0 C15.18 0 30.36 0 46 0 C46 63.69 46 127.38 46 193 C78.67 193 111.34 193 145 193 C145 206.2 145 219.4 145 233 C97.15 233 49.3 233 0 233 C0 156.11 0 79.22 0 0 Z " fill="#499DFE" transform="translate(195,137)"/>
  </g>
  <g id="dark-icon">
    <path d="M0 0 C0.6886783 -0.00265183 1.37735659 -0.00530365 2.08690393 -0.00803584 C4.4056911 -0.01572462 6.72442527 -0.01628785 9.04322433 -0.01688576 C10.71819306 -0.02090069 12.39316081 -0.02533897 14.06812739 -0.03016531 C18.68004159 -0.04213382 23.29194533 -0.04777994 27.90387201 -0.05234647 C32.87484963 -0.05830174 37.84581473 -0.069912 42.81678391 -0.08063698 C54.82864462 -0.10516619 66.84050949 -0.11979069 78.85238755 -0.13269705 C82.24599905 -0.13640917 85.63961015 -0.14038241 89.03322124 -0.14444971 C110.11211934 -0.16969093 131.1910181 -0.19174173 152.26992798 -0.20417786 C157.15324277 -0.20710752 162.03655754 -0.21006918 166.91987228 -0.21308327 C168.13358414 -0.21382932 169.34729599 -0.21457537 170.59778699 -0.21534403 C190.24500842 -0.22798885 209.89213917 -0.26119948 229.53931823 -0.3028851 C249.71702415 -0.34534473 269.89468372 -0.36887772 290.07243419 -0.37409842 C301.39877069 -0.3775084 312.72496561 -0.38921462 324.05125809 -0.42220116 C333.7008564 -0.45025844 343.35028411 -0.46117618 352.99992004 -0.4500057 C357.91941371 -0.44483321 362.83855041 -0.44761374 367.75799179 -0.47247124 C372.2714339 -0.49508572 376.78426516 -0.49413001 381.29771885 -0.47526737 C382.92103108 -0.47248431 384.54438582 -0.47797039 386.16763011 -0.4930803 C405.80819551 -0.66456235 421.3792 5.14177897 435.89936447 18.76592064 C449.61956272 33.02646916 453.48824249 49.40918497 453.44804001 68.5008297 C453.45177882 70.18138976 453.45638126 71.86194808 453.46177065 73.54250365 C453.4739876 78.15119301 453.47374172 82.75980971 453.4713819 87.36851156 C453.4709734 92.34277421 453.48201607 97.31701367 453.49149704 102.29126549 C453.50810108 112.03355533 453.51360633 121.77582096 453.5147218 131.51812377 C453.51567259 139.43878279 453.51978448 147.35943383 453.52612305 155.28009033 C453.54373418 177.74468716 453.55296217 200.20926489 453.5514621 222.67386868 C453.55134223 224.49000203 453.55134223 224.49000203 453.55121994 226.34282494 C453.55113818 227.55506172 453.55105642 228.76729849 453.55097218 230.01626972 C453.55015941 249.65878564 453.56929502 269.30122484 453.59749667 288.94371857 C453.62623631 309.1204115 453.64003636 329.29706702 453.63830912 349.47378093 C453.63764557 360.79825665 453.64312246 372.12265196 453.66466522 383.44710922 C453.68289124 393.08973413 453.68721267 402.73224219 453.67364638 412.37487688 C453.66712382 417.2919468 453.66697381 422.20879264 453.68435287 427.12584114 C453.70012017 431.6333525 453.69718273 436.14046278 453.67978461 440.64796457 C453.67672275 442.27244309 453.68031622 443.89695182 453.69150476 445.52139469 C453.81853214 465.28433045 447.70713147 480.81790782 434.19233322 495.26201439 C429.85006038 499.448914 425.12267488 502.55372126 419.86811447 505.44951439 C419.28860031 505.7751638 418.70908615 506.10081322 418.11201096 506.4363308 C407.10458881 512.19534938 395.52868867 512.57284462 383.40497971 512.51796532 C381.72850332 512.52142749 380.05202921 512.5261958 378.37555981 512.53214705 C373.79673766 512.54460978 369.21810436 512.5385083 364.63928175 512.52918839 C359.69032896 512.52237879 354.74140782 512.53288859 349.7924614 512.54112816 C340.10852172 512.55444732 330.42465192 512.55159585 320.74070954 512.54289024 C312.86828556 512.53610695 304.99588112 512.53519976 297.12345505 512.53846169 C295.44089588 512.53915123 295.44089588 512.53915123 293.72434562 512.53985471 C291.4454108 512.54081392 289.16647599 512.54178656 286.88754117 512.54277249 C265.53279461 512.55132106 244.17808672 512.5415006 222.8233465 512.52537139 C204.5117524 512.5119687 186.20021535 512.51429694 167.88862228 512.52812767 C146.6087427 512.54419288 125.32889699 512.55049713 104.04901218 512.54129088 C101.77859943 512.54033526 99.50818666 512.53939215 97.2377739 512.53846169 C96.12077352 512.53799886 95.00377315 512.53753603 93.85292429 512.53705918 C85.99265346 512.53447212 78.13240418 512.53883417 70.27213669 512.54590034 C60.68924289 512.55432599 51.10642279 512.55201279 41.5235374 512.53605811 C36.63698316 512.52818977 31.75055166 512.5250593 26.86399841 512.53500557 C22.38574014 512.54398273 17.90771773 512.53897007 13.42948067 512.52307291 C11.81456487 512.51973787 10.19962891 512.52139024 8.58472621 512.52870028 C-10.56114267 512.60867871 -26.7115085 507.75205822 -40.80791092 494.41631126 C-53.36851101 481.83629757 -59.0582388 465.9205484 -59.09619653 448.48634034 C-59.09325472 446.9152929 -59.09011932 445.3442458 -59.08681107 443.77319908 C-59.09054988 442.09263902 -59.09515232 440.4120807 -59.10054171 438.73152512 C-59.11275866 434.12283577 -59.11251278 429.51421907 -59.11015296 424.90551722 C-59.10974446 419.93125457 -59.12078713 414.95701511 -59.1302681 409.98276329 C-59.14687214 400.24047345 -59.15237738 390.49820782 -59.15349285 380.75590501 C-59.15444365 372.83524599 -59.15855554 364.91459494 -59.1648941 356.99393845 C-59.18250523 334.52934161 -59.19173323 312.06476388 -59.19023316 289.6001601 C-59.19015324 288.38940453 -59.19007333 287.17864897 -59.189991 285.93120384 C-59.18990924 284.71896706 -59.18982747 283.50673028 -59.18974324 282.25775906 C-59.18893047 262.61524314 -59.20806608 242.97280393 -59.23626773 223.3303102 C-59.26500737 203.15361728 -59.27880741 182.97696176 -59.27708018 162.80024785 C-59.27641663 151.47577213 -59.28189351 140.15137682 -59.30343628 128.82691956 C-59.3216623 119.18429465 -59.32598373 109.54178659 -59.31241743 99.8991519 C-59.30589488 94.98208197 -59.30574487 90.06523614 -59.32312393 85.14818764 C-59.33889122 80.64067628 -59.33595379 76.133566 -59.31855567 71.6260642 C-59.3154938 70.00158569 -59.31908728 68.37707696 -59.33027582 66.75263409 C-59.45659936 47.09920152 -53.45019515 31.13061991 -39.69047928 16.94170189 C-29.12570493 7.00060832 -14.6178972 0.02771614 0 0 Z " fill="#DFDFDF" transform="translate(58.81938552856445,-0.13701438903808594)"/>
    <path d="M0 0 C15.18 0 30.36 0 46 0 C46 63.69 46 127.38 46 193 C78.67 193 111.34 193 145 193 C145 206.2 145 219.4 145 233 C97.15 233 49.3 233 0 233 C0 156.11 0 79.22 0 0 Z " fill="#1A1A1A" transform="translate(195,137)"/>
  </g>
</svg>